<svg xmlns="http://www.w3.org/2000/svg" xmlns:xlink="http://www.w3.org/1999/xlink" width="180" height="159" viewBox="0 0 180 159">
  <defs>
    <filter id="Polygon_3" x="0" y="0" width="180" height="159" filterUnits="userSpaceOnUse">
      <feOffset dy="3" input="SourceAlpha"/>
      <feGaussianBlur stdDeviation="5" result="blur"/>
      <feFlood flood-opacity="0.161"/>
      <feComposite operator="in" in2="blur"/>
      <feComposite in="SourceGraphic"/>
    </filter>
  </defs>
  <g id="Group_5" data-name="Group 5" transform="translate(-105 -371)">
    <g id="Polygon_2" data-name="Polygon 2" transform="translate(120 383)" fill="#fff">
      <path d="M 132.6187744140625 128 L 17.38124465942383 128 C 14.12188053131104 128 11.20560741424561 126.3133544921875 9.580207824707031 123.4881896972656 C 7.954807758331299 120.6630401611328 7.962461948394775 117.2941513061523 9.600680351257324 114.4764022827148 L 67.21942901611328 15.37215137481689 C 68.84906005859375 12.56916904449463 71.75769805908203 10.89573287963867 74.99999237060547 10.89573287963867 C 78.24227905273438 10.89573287963867 81.15091705322266 12.56916904449463 82.78055572509766 15.37215137481689 L 140.3993225097656 114.4764022827148 C 142.0375518798828 117.2941360473633 142.0452117919922 120.6630249023438 140.4198150634766 123.4881896972656 C 138.7944030761719 126.3133544921875 135.8781280517578 128 132.6187744140625 128 Z" stroke="none"/>
      <path d="M 74.99998474121094 11.89571380615234 C 72.11795043945312 11.89571380615234 69.53250885009766 13.38321685791016 68.08394622802734 15.874755859375 L 10.46519470214844 114.9790344238281 C 9.008987426757812 117.4836959838867 9.002182006835938 120.4782562255859 10.44699096679688 122.9894943237305 C 11.89178466796875 125.500732421875 14.48402404785156 127 17.38124084472656 127 L 132.6187744140625 127 C 135.5159606933594 127 138.1082305908203 125.500732421875 139.5530242919922 122.9894943237305 C 140.9978332519531 120.4782562255859 140.9910125732422 117.4836959838867 139.5348052978516 114.9790344238281 L 81.91604614257812 15.874755859375 C 80.46746826171875 13.38321685791016 77.88202667236328 11.89571380615234 74.99998474121094 11.89571380615234 M 75 9.895729064941406 C 78.35861968994141 9.895729064941406 81.71723937988281 11.55365753173828 83.64506530761719 14.86951446533203 L 141.2638244628906 113.9738006591797 C 145.1397857666016 120.6404190063477 140.3302307128906 129 132.6187744140625 129 L 17.38124084472656 129 C 9.669769287109375 129 4.8602294921875 120.6404190063477 8.736160278320312 113.9738006591797 L 66.35492706298828 14.86951446533203 C 68.28276062011719 11.55365753173828 71.64138031005859 9.895729064941406 75 9.895729064941406 Z" stroke="none" fill="#707070"/>
    </g>
    <g transform="matrix(1, 0, 0, 1, 105, 371)" filter="url(#Polygon_3)">
      <g id="Polygon_3-2" data-name="Polygon 3" transform="translate(15 12)" fill="red">
        <path d="M 132.6187744140625 128 L 17.38124465942383 128 C 14.12188053131104 128 11.20560741424561 126.3133544921875 9.580207824707031 123.4881896972656 C 7.954807758331299 120.6630401611328 7.962461948394775 117.2941513061523 9.600680351257324 114.4764022827148 L 67.21942901611328 15.37215137481689 C 68.84906005859375 12.56916904449463 71.75769805908203 10.89573287963867 74.99999237060547 10.89573287963867 C 78.24227905273438 10.89573287963867 81.15091705322266 12.56916904449463 82.78055572509766 15.37215137481689 L 140.3993225097656 114.4764022827148 C 142.0375518798828 117.2941360473633 142.0452117919922 120.6630249023438 140.4198150634766 123.4881896972656 C 138.7944030761719 126.3133544921875 135.8781280517578 128 132.6187744140625 128 Z" stroke="none"/>
        <path d="M 74.99998474121094 11.89571380615234 C 72.11795043945312 11.89571380615234 69.53250885009766 13.38321685791016 68.08394622802734 15.874755859375 L 10.46519470214844 114.9790344238281 C 9.008987426757812 117.4836959838867 9.002182006835938 120.4782562255859 10.44699096679688 122.9894943237305 C 11.89178466796875 125.500732421875 14.48402404785156 127 17.38124084472656 127 L 132.6187744140625 127 C 135.5159606933594 127 138.1082305908203 125.500732421875 139.5530242919922 122.9894943237305 C 140.9978332519531 120.4782562255859 140.9910125732422 117.4836959838867 139.5348052978516 114.9790344238281 L 81.91604614257812 15.874755859375 C 80.46746826171875 13.38321685791016 77.88202667236328 11.89571380615234 74.99998474121094 11.89571380615234 M 75 9.895729064941406 C 78.35861968994141 9.895729064941406 81.71723937988281 11.55365753173828 83.64506530761719 14.86951446533203 L 141.2638244628906 113.9738006591797 C 145.1397857666016 120.6404190063477 140.3302307128906 129 132.6187744140625 129 L 17.38124084472656 129 C 9.669769287109375 129 4.8602294921875 120.6404190063477 8.736160278320312 113.9738006591797 L 66.35492706298828 14.86951446533203 C 68.28276062011719 11.55365753173828 71.64138031005859 9.895729064941406 75 9.895729064941406 Z" stroke="none" fill="red"/>
      </g>
    </g>
    <path id="Polygon_4" data-name="Polygon 4" d="M50.768,3a2,2,0,0,1,3.465,0L103.27,88a2,2,0,0,1-1.732,3H3.463A2,2,0,0,1,1.73,88Z" transform="translate(143 408)" fill="#fff"/>
    <g id="Group_4" data-name="Group 4" transform="translate(120 28)">
      <ellipse id="Ellipse_1" data-name="Ellipse 1" cx="15.5" cy="16" rx="15.5" ry="16" transform="translate(60 429)" fill="red"/>
      <path id="Polygon_5" data-name="Polygon 5" d="M14.5,0,29,28H0Z" transform="translate(61 411)" fill="red"/>
    </g>
  </g>
</svg>
